<svg version="1.1" xmlns="http://www.w3.org/2000/svg" xmlns:xlink="http://www.w3.org/1999/xlink" width="48px" height="48px" viewBox="0,0,256,256"><defs><linearGradient x1="24" y1="5.065" x2="24" y2="43.89" gradientUnits="userSpaceOnUse" id="color-1"><stop offset="0" stop-color="#4facf4"></stop><stop offset="0.587" stop-color="#3581ec"></stop><stop offset="1" stop-color="#2056e5"></stop></linearGradient></defs><g fill="url(#color-1)" fill-rule="nonzero" stroke="none" stroke-width="1" stroke-linecap="butt" stroke-linejoin="miter" stroke-miterlimit="10" stroke-dasharray="" stroke-dashoffset="0" font-family="none" font-weight="none" font-size="none" text-anchor="none" style="mix-blend-mode: normal"><g transform="scale(5.33333,5.33333)"><path d="M39.981,28h-31.962c-1.115,0 -2.019,-0.904 -2.019,-2.019v-3.961c0,-1.116 0.904,-2.02 2.019,-2.02h31.961c1.116,0 2.02,0.904 2.02,2.019v3.961c0,1.116 -0.904,2.02 -2.019,2.02zM25.981,15h-3.961c-1.116,0 -2.02,-0.904 -2.02,-2.019v-3.962c0,-1.115 0.904,-2.019 2.019,-2.019h3.961c1.116,0 2.02,0.904 2.02,2.019v3.961c0,1.116 -0.904,2.02 -2.019,2.02zM25.981,41h-3.961c-1.116,0 -2.02,-0.904 -2.02,-2.019v-3.961c0,-1.116 0.904,-2.02 2.019,-2.02h3.961c1.116,0 2.02,0.904 2.02,2.019v3.961c0,1.116 -0.904,2.02 -2.019,2.02z"></path></g></g></svg>